<?xml version="1.0" encoding="UTF-8"?>
<svg width="175px" height="176px" viewBox="0 0 175 176" version="1.1" xmlns="http://www.w3.org/2000/svg" xmlns:xlink="http://www.w3.org/1999/xlink">
    <!-- Generator: sketchtool 55.2 (78181) - https://sketchapp.com -->
    <title>956E262B-92F6-4F0C-93D0-F68E926581FD</title>
    <desc>Created with sketchtool.</desc>
    <g id="Symbols" stroke="none" stroke-width="1" fill="none" fill-rule="evenodd">
        <g id="img/featured-icon" fill="#000000" fill-rule="nonzero">
            <g id="featured-icon">
                <g id="feature_text">
                    <polygon id="Path" points="88.5 9.7 89.1 0.7 91.2 0.8 91 4.4 95 4.7 95.2 1.1 97.3 1.2 96.7 10.2 94.6 10.1 94.8 6.5 90.8 6.2 90.6 9.8"></polygon>
                    <path d="M98.2,7.7 C98.4,6.8 98.8,6.1 99.6,5.7 C100.4,5.3 101.3,5.2 102.3,5.5 C103.2,5.7 104,5.9 104.7,6.3 L104.7,6.1 C104.8,5.5 104.7,5 104.4,4.6 C104.1,4.2 103.6,3.9 102.9,3.8 C102.1,3.7 101.2,3.7 100.3,3.9 L100,2.2 C100.6,2.1 101.2,2 101.7,2 C102.2,2 102.8,2 103.5,2.2 C104.8,2.4 105.7,2.9 106.2,3.7 C106.7,4.5 106.9,5.5 106.7,6.6 L105.7,11.8 L103.7,11.4 L103.9,10.3 C103,11 102,11.3 100.8,11 C100.2,10.9 99.7,10.7 99.3,10.4 C98.9,10.1 98.5,9.7 98.3,9.2 C98.1,8.7 98.1,8.3 98.2,7.7 Z M100.2,8 C100.1,8.4 100.2,8.8 100.5,9 C100.8,9.3 101.2,9.5 101.7,9.6 C102.4,9.7 103,9.7 103.5,9.4 C104,9.1 104.3,8.7 104.4,8.2 L104.5,7.7 C104,7.4 103.3,7.1 102.5,7 C101.9,6.9 101.3,6.9 100.9,7.1 C100.5,7.3 100.3,7.6 100.2,8 Z" id="Shape"></path>
                    <polygon id="Path" points="107.2 12.1 110 3.6 111.9 4.2 113.3 9 117.3 5.9 119.2 6.5 116.4 15 114.4 14.4 116.3 8.7 112.4 11.6 111 6.9 109.1 12.6"></polygon>
                    <path d="M123.8,13.6 C124.2,12.9 124.8,12.3 125.4,11.8 C126.1,11.4 126.8,11.1 127.6,11.1 C128.4,11.1 129.2,11.2 129.9,11.7 C130.4,12 130.8,12.3 131.1,12.7 C131.4,13.1 131.7,13.5 131.8,13.9 C131.9,14.3 132,14.8 132,15.2 C132,15.6 131.9,16.1 131.8,16.6 C131.7,17.1 131.5,17.5 131.2,18 C131.1,18.2 131,18.4 130.9,18.5 L125.1,15.3 C124.8,16 124.8,16.6 125,17.2 C125.2,17.8 125.6,18.2 126.2,18.6 C126.6,18.8 127,19 127.5,19 C127.9,19 128.4,19 128.9,18.8 L129.4,20.3 C128,20.8 126.7,20.7 125.4,20 C124.6,19.6 124.1,19 123.6,18.4 C123.2,17.7 123,17 123,16.1 C123.1,15.2 123.4,14.4 123.8,13.6 Z M125.9,14 L129.9,16.2 C130.2,15.6 130.2,14.9 130.1,14.4 C130,13.8 129.6,13.4 129,13.1 C128.5,12.8 127.9,12.7 127.3,12.9 C126.8,13.1 126.3,13.5 125.9,14 Z" id="Shape"></path>
                    <path d="M132.4,18.6 L132.4,18.6 C132.9,17.9 133.5,17.4 134.3,17 C135,16.7 135.8,16.5 136.7,16.6 C137.5,16.7 138.3,17 139,17.5 C139.7,18 140.1,18.5 140.4,19 C140.7,19.5 140.9,20.2 141,20.8 L139.2,21.2 C139.1,20.7 139,20.3 138.8,19.9 C138.6,19.5 138.3,19.2 137.9,18.9 C137.3,18.5 136.6,18.3 135.9,18.5 C135.2,18.7 134.6,19.1 134.1,19.7 L134.1,19.7 C133.6,20.4 133.4,21.1 133.5,21.8 C133.6,22.5 133.9,23.2 134.6,23.6 C135,23.9 135.4,24 135.8,24.1 C136.2,24.2 136.7,24.1 137.2,24.1 L137.5,25.8 C136.8,26 136.1,26 135.5,25.9 C134.9,25.8 134.2,25.5 133.6,25 C132.9,24.5 132.4,23.9 132,23.1 C131.7,22.3 131.5,21.6 131.6,20.8 C131.7,20 131.9,19.2 132.4,18.6 Z" id="Path"></path>
                    <polygon id="Path" points="141.3 21.7 142.5 20.4 148.4 25.7 147.2 27 145 25 140.2 30.4 138.7 29 143.5 23.6"></polygon>
                    <path d="M143,32.9 L149.7,26.9 L151.1,28.4 L148.8,30.5 L150.2,32 C150.7,32.5 151,33 151.2,33.6 C151.4,34.1 151.4,34.6 151.3,35.2 C151.2,35.7 150.9,36.2 150.4,36.6 C149.7,37.2 149,37.5 148.2,37.4 C147.4,37.3 146.6,36.9 145.9,36.1 L143,32.9 Z M145.6,33.3 L146.9,34.7 C147.2,35.1 147.6,35.3 148,35.4 C148.4,35.5 148.7,35.3 149,35.1 C149.3,34.8 149.4,34.5 149.4,34.2 C149.4,33.9 149.2,33.5 148.8,33.1 L147.5,31.7 L145.6,33.3 Z" id="Shape"></path>
                    <path d="M147,39.9 C147.7,40.6 148.4,40.7 149,40.2 C149,40.2 149,40.2 149.1,40.1 C149.1,40.1 149.2,40 149.2,40 L148.7,39.3 L150.5,37.9 L151.9,39.7 L150.3,40.9 C149.6,41.5 148.9,41.7 148.3,41.6 C147.7,41.5 147.1,41.2 146.5,40.5 L147,39.9 Z" id="Path"></path>
                    <path d="M158.2,43.3 L161.2,41.6 L162.2,43.4 L159.6,44.9 C159.2,45.1 159,45.4 158.8,45.8 C158.6,46.2 158.7,46.6 158.9,47 C159.3,47.7 159.8,48.2 160.5,48.6 L163.9,46.7 L164.9,48.5 L157.1,52.9 L156.1,51.1 L159,49.5 C158.7,49.3 158.3,49 158,48.6 C157.6,48.2 157.4,47.9 157.1,47.5 C156.6,46.7 156.5,45.9 156.6,45.2 C157,44.3 157.4,43.7 158.2,43.3 Z" id="Path"></path>
                    <path d="M162,52.1 C162.8,51.8 163.6,51.6 164.4,51.7 C165.2,51.8 165.9,52 166.6,52.5 C167.2,53 167.7,53.6 168.1,54.3 C168.3,54.8 168.4,55.3 168.5,55.8 C168.6,56.3 168.5,56.8 168.3,57.2 C168.2,57.6 167.9,58 167.7,58.4 C167.4,58.8 167.1,59.1 166.7,59.4 C166.3,59.7 165.9,59.9 165.4,60.1 C165.2,60.2 165,60.3 164.9,60.3 L162.4,54.2 C161.8,54.6 161.4,55.1 161.2,55.6 C161,56.1 161,56.8 161.3,57.4 C161.5,57.9 161.7,58.2 162,58.5 C162.3,58.8 162.7,59 163.2,59.2 L162.7,60.7 C161.3,60.3 160.3,59.4 159.7,58 C159.4,57.2 159.2,56.4 159.3,55.6 C159.4,54.8 159.7,54.1 160.2,53.4 C160.7,52.7 161.1,52.5 162,52.1 Z M163.3,53.8 L165.1,58.1 C165.7,57.8 166.2,57.3 166.4,56.8 C166.7,56.3 166.7,55.7 166.4,55.1 C166.2,54.5 165.8,54.1 165.2,53.9 C164.6,53.7 164,53.6 163.3,53.8 Z" id="Shape"></path>
                    <polygon id="Path" points="161.6 63 170.3 60.7 170.8 62.7 167.5 66.5 172.2 68.2 172.7 70.2 164 72.5 163.5 70.5 169.3 69 164.7 67.3 167.8 63.6 162 65.1"></polygon>
                    <polygon id="Path" points="165 78.4 174 77.8 174.5 85.8 165.5 86.4 165.4 84.3 172.6 83.8 172.3 79.9 165.1 80.4"></polygon>
                    <path d="M170.1,87.9 C170.9,87.9 171.7,88.2 172.4,88.7 C173.1,89.2 173.6,89.8 174,90.5 C174.4,91.3 174.5,92.1 174.5,93 C174.4,93.9 174.2,94.7 173.7,95.4 C173.2,96.1 172.6,96.6 171.9,97 C171.2,97.4 170.4,97.5 169.5,97.5 C168.9,97.5 168.3,97.3 167.7,97 C167.1,96.7 166.7,96.4 166.3,95.9 C165.9,95.5 165.6,94.9 165.4,94.3 C165.2,93.7 165.1,93 165.1,92.4 C165.2,91.5 165.4,90.7 165.9,90 C166.4,89.3 167,88.8 167.7,88.4 C168.5,88 169.2,87.9 170.1,87.9 Z M170,90 C169.2,90 168.5,90.2 167.9,90.7 C167.3,91.2 167,91.8 166.9,92.6 C166.9,93.4 167.1,94.1 167.6,94.6 C168.1,95.1 168.8,95.4 169.6,95.5 C170.4,95.5 171.1,95.3 171.7,94.8 C172.3,94.3 172.6,93.7 172.7,92.9 C172.7,92.1 172.5,91.4 172,90.9 C171.5,90.3 170.8,90 170,90 Z" id="Shape"></path>
                    <polygon id="Path" points="165.1 97.2 169 101.2 173.9 98.8 173.5 101 170.2 102.5 172.7 105.1 172.3 107.3 168.6 103.4 163.5 105.9 163.9 103.7 167.4 102.1 164.7 99.4"></polygon>
                    <path d="M163.3,106.8 L171.9,109.4 L170.6,113.8 C170.3,114.7 169.9,115.3 169.4,115.7 C168.9,116.1 168.3,116.2 167.6,116 C166.7,115.7 166.2,115.1 166,114 C165.3,115.1 164.4,115.5 163.3,115.1 C162.6,114.9 162.1,114.4 161.9,113.7 C161.7,113 161.7,112.2 162,111.2 L163.3,106.8 Z M164.2,109.2 L163.5,111.4 C163.4,111.9 163.3,112.3 163.5,112.6 C163.7,112.9 163.9,113.1 164.2,113.2 C164.5,113.3 164.8,113.2 165.1,113 C165.4,112.8 165.6,112.4 165.7,111.9 L166.3,109.8 L164.2,109.2 Z M167.7,110.2 L167.1,112.2 C167,112.6 167,112.9 167.1,113.2 C167.2,113.5 167.5,113.7 167.8,113.8 C168.1,113.9 168.4,113.9 168.6,113.7 C168.8,113.5 169,113.3 169.2,112.8 L169.8,110.7 L167.7,110.2 Z" id="Shape"></path>
                    <path d="M163.2,116.1 C164.1,116.5 164.6,117.1 164.8,117.9 C165,118.7 164.9,119.6 164.4,120.6 C164.1,121.4 163.6,122.1 163.1,122.7 L163.3,122.8 C163.9,123.1 164.4,123.1 164.8,122.9 C165.2,122.7 165.6,122.3 165.9,121.6 C166.2,120.9 166.4,120 166.4,119 L168.1,119.1 C168.1,119.7 168.1,120.3 168,120.8 C167.9,121.3 167.7,121.9 167.4,122.5 C166.9,123.7 166.2,124.5 165.3,124.8 C164.4,125.1 163.4,125.1 162.3,124.6 L157.4,122.5 L158.2,120.6 L159.2,121 C158.7,120 158.7,118.9 159.2,117.8 C159.4,117.3 159.7,116.8 160.1,116.5 C160.5,116.1 160.9,115.9 161.4,115.8 C162.1,115.8 162.6,115.8 163.2,116.1 Z M162.4,118 C162,117.8 161.7,117.9 161.3,118.1 C161,118.3 160.7,118.6 160.5,119.1 C160.2,119.7 160.2,120.3 160.3,120.9 C160.4,121.5 160.8,121.8 161.3,122.1 L161.8,122.3 C162.3,121.8 162.6,121.3 162.9,120.6 C163.2,120 163.2,119.5 163.2,119.1 C163.1,118.5 162.8,118.2 162.4,118 Z" id="Shape"></path>
                    <path d="M160.9,125.7 L160.9,125.7 C161.7,126.1 162.2,126.7 162.7,127.4 C163.1,128.1 163.3,128.9 163.3,129.7 C163.3,130.5 163.1,131.3 162.7,132.1 C162.3,132.8 161.8,133.3 161.3,133.7 C160.8,134.1 160.2,134.3 159.6,134.5 L159,132.7 C159.5,132.6 159.9,132.4 160.3,132.2 C160.6,132 160.9,131.7 161.2,131.2 C161.6,130.6 161.6,129.9 161.4,129.2 C161.2,128.5 160.7,127.9 160,127.5 L160,127.5 C159.3,127.1 158.6,127 157.8,127.1 C157.1,127.3 156.5,127.7 156.1,128.3 C155.9,128.7 155.7,129.1 155.7,129.5 C155.7,129.9 155.7,130.4 155.9,130.9 L154.2,131.4 C154,130.7 153.9,130 153.9,129.4 C153.9,128.8 154.2,128.1 154.6,127.4 C155,126.6 155.6,126.1 156.3,125.7 C157,125.3 157.8,125.1 158.6,125.1 C159.4,125.1 160.1,125.3 160.9,125.7 Z" id="Path"></path>
                    <polygon id="Path" points="158.6 135 160 136.1 155.4 142.5 154 141.4 155.7 139.1 149.9 134.9 151.1 133.2 156.9 137.4"></polygon>
                    <path d="M150.2,138.7 C150.9,139.3 151.2,140.1 151.2,140.9 C151.1,141.7 150.7,142.6 150,143.4 C149.4,144.1 148.8,144.6 148.1,145 L148.2,145.1 C148.7,145.5 149.2,145.7 149.7,145.6 C150.2,145.5 150.7,145.2 151.2,144.7 C151.7,144.1 152.2,143.3 152.5,142.4 L154.1,143.1 C153.9,143.7 153.7,144.2 153.4,144.7 C153.1,145.2 152.8,145.7 152.3,146.2 C151.4,147.2 150.5,147.7 149.6,147.7 C148.7,147.7 147.8,147.4 146.8,146.6 L142.8,143 L144.2,141.5 L145,142.2 C144.8,141.1 145.2,140.1 146,139.2 C146.4,138.8 146.8,138.4 147.3,138.2 C147.8,138 148.3,137.9 148.8,138 C149.3,138.1 149.8,138.3 150.2,138.7 Z M148.9,140.3 C148.6,140 148.2,139.9 147.9,140 C147.5,140.1 147.1,140.3 146.8,140.7 C146.3,141.2 146.1,141.7 146.1,142.3 C146.1,142.9 146.2,143.3 146.7,143.7 L147.1,144 C147.7,143.7 148.2,143.3 148.7,142.7 C149.1,142.2 149.4,141.8 149.4,141.3 C149.4,140.8 149.2,140.6 148.9,140.3 Z" id="Shape"></path>
                    <polygon id="Path" points="147.1 148.9 148.3 150.2 142.4 155.4 141.2 154.1 143.4 152.2 138.6 146.8 140.1 145.4 144.9 150.8"></polygon>
                    <path d="M135.8,149.3 L141,156.6 L139.3,157.8 L137.5,155.3 L135.8,156.5 C135.2,156.9 134.7,157.2 134.1,157.3 C133.6,157.4 133,157.4 132.5,157.3 C132,157.1 131.5,156.8 131.2,156.3 C130.7,155.5 130.5,154.8 130.7,154 C130.9,153.2 131.4,152.5 132.3,151.9 L135.8,149.3 Z M135.1,151.8 L133.5,152.9 C133.1,153.2 132.8,153.5 132.7,153.9 C132.6,154.2 132.7,154.6 132.9,154.9 C133.1,155.2 133.4,155.4 133.8,155.4 C134.2,155.4 134.6,155.3 135,154.9 L136.5,153.8 L135.1,151.8 Z" id="Shape"></path>
                    <path d="M131.4,157.9 L131.4,157.9 C131.8,158.7 132,159.4 132,160.3 C132,161.1 131.8,161.9 131.4,162.6 C131,163.3 130.4,163.9 129.6,164.3 C128.9,164.7 128.2,164.9 127.6,165 C127,165.1 126.3,165 125.7,164.8 L126.1,163 C126.6,163.1 127,163.2 127.4,163.2 C127.8,163.2 128.2,163.1 128.6,162.8 C129.2,162.4 129.6,161.9 129.8,161.2 C130,160.5 129.8,159.8 129.4,159.1 L129.4,159.1 C129,158.4 128.4,157.9 127.7,157.7 C127,157.5 126.3,157.5 125.6,157.9 C125.2,158.1 124.9,158.4 124.7,158.8 C124.5,159.2 124.3,159.6 124.2,160.1 L122.5,159.6 C122.7,158.9 122.9,158.3 123.3,157.7 C123.7,157.2 124.2,156.7 124.9,156.3 C125.7,155.9 126.5,155.7 127.3,155.7 C128.1,155.7 128.9,155.9 129.6,156.4 C130.4,156.6 130.9,157.1 131.4,157.9 Z" id="Path"></path>
                    <path d="M121.8,158.2 L120.8,162.3 C121.5,162.2 122.1,162.3 122.6,162.6 C123.1,162.9 123.5,163.3 123.8,163.9 C124.1,164.7 124.1,165.5 123.8,166.2 C123.4,166.9 122.7,167.5 121.7,167.9 L117.5,169.6 L114,161.3 L115.9,160.5 L117.1,163.3 L118.8,162.6 L119.6,159 L121.8,158.2 Z M121.8,164.6 C121.6,164.2 121.4,164 121,163.9 C120.6,163.8 120.2,163.9 119.7,164.1 L117.7,164.9 L118.7,167.4 L120.7,166.6 C121.2,166.4 121.5,166.1 121.7,165.8 C122,165.3 122,165 121.8,164.6 Z" id="Shape"></path>
                    <polygon id="Path" points="104.9 168.4 105.2 170.3 98.2 171.5 97.9 169.6"></polygon>
                    <polygon id="Path" points="86.9 166.1 86.4 175.1 84.3 175 84.5 171.4 80.5 171.2 80.3 174.8 78.2 174.7 78.7 165.7 80.8 165.8 80.6 169.4 84.6 169.6 84.8 166"></polygon>
                    <path d="M77.3,168.1 C77.1,169 76.7,169.7 75.9,170.1 C75.1,170.5 74.2,170.6 73.2,170.4 C72.3,170.2 71.5,170 70.8,169.6 L70.8,169.8 C70.7,170.4 70.8,170.9 71.1,171.3 C71.4,171.7 71.9,172 72.6,172.1 C73.4,172.2 74.3,172.2 75.2,172 L75.5,173.7 C74.9,173.8 74.3,173.9 73.8,174 C73.3,174.1 72.7,174 72,173.9 C70.7,173.7 69.8,173.2 69.3,172.4 C68.8,171.6 68.6,170.7 68.8,169.5 L69.7,164.3 L71.7,164.7 L71.5,165.8 C72.4,165.1 73.4,164.8 74.6,165 C75.2,165.1 75.7,165.3 76.1,165.6 C76.5,165.9 76.9,166.3 77.1,166.7 C77.3,167 77.4,167.5 77.3,168.1 Z M75.2,167.8 C75.3,167.4 75.2,167 74.9,166.8 C74.6,166.5 74.2,166.3 73.7,166.2 C73,166.1 72.4,166.2 71.9,166.4 C71.4,166.7 71.1,167.1 71,167.6 L70.9,168.1 C71.4,168.4 72.1,168.7 72.9,168.8 C73.5,168.9 74.1,168.9 74.4,168.7 C74.9,168.6 75.2,168.3 75.2,167.8 Z" id="Shape"></path>
                    <polygon id="Path" points="68.2 163.8 65.5 172.3 63.5 171.7 62.1 166.9 58.1 170 56.2 169.4 58.9 160.9 60.9 161.5 59.1 167.2 63 164.2 64.5 168.9 66.3 163.2"></polygon>
                    <path d="M51.6,162.5 C51.2,163.2 50.7,163.8 50,164.3 C49.3,164.7 48.6,165 47.8,165 C47,165 46.2,164.9 45.5,164.5 C45,164.2 44.6,163.9 44.3,163.5 C44,163.1 43.7,162.7 43.6,162.3 C43.4,161.9 43.4,161.4 43.4,161 C43.4,160.5 43.4,160.1 43.6,159.6 C43.7,159.1 43.9,158.7 44.2,158.2 C44.3,158 44.4,157.8 44.5,157.7 L50.3,160.9 C50.5,160.2 50.6,159.6 50.3,159 C50.1,158.4 49.7,158 49.1,157.7 C48.7,157.5 48.2,157.3 47.8,157.3 C47.4,157.3 46.9,157.3 46.4,157.5 L45.8,156 C47.2,155.5 48.5,155.6 49.8,156.3 C50.6,156.7 51.1,157.3 51.6,157.9 C52,158.6 52.2,159.3 52.3,160.2 C52.4,161.1 52,161.7 51.6,162.5 Z M49.5,162.1 L45.5,159.9 C45.2,160.5 45.2,161.2 45.3,161.7 C45.4,162.3 45.8,162.7 46.4,163 C46.9,163.3 47.5,163.4 48.1,163.2 C48.6,163 49.1,162.6 49.5,162.1 Z" id="Shape"></path>
                    <path d="M42.9,157.6 L42.9,157.6 C42.4,158.3 41.8,158.8 41,159.2 C40.3,159.6 39.5,159.7 38.6,159.6 C37.8,159.5 37,159.2 36.3,158.7 C35.6,158.2 35.2,157.7 34.8,157.2 C34.5,156.7 34.3,156 34.2,155.4 L36,155 C36.1,155.5 36.2,155.9 36.4,156.3 C36.6,156.7 36.9,157 37.3,157.3 C37.9,157.7 38.6,157.9 39.3,157.7 C40,157.5 40.6,157.1 41.1,156.5 L41.1,156.5 C41.6,155.8 41.8,155.1 41.7,154.4 C41.6,153.6 41.2,153 40.6,152.6 C40.2,152.3 39.8,152.2 39.4,152.1 C39,152 38.5,152.1 38,152.2 L37.7,150.5 C38.4,150.3 39.1,150.3 39.7,150.4 C40.3,150.5 41,150.8 41.7,151.3 C42.4,151.8 42.9,152.4 43.3,153.2 C43.7,154 43.8,154.7 43.7,155.5 C43.7,156.2 43.4,156.9 42.9,157.6 Z" id="Path"></path>
                    <polygon id="Path" points="34 154.5 32.8 155.8 26.9 150.6 28.1 149.3 30.3 151.2 35.1 145.8 36.6 147.2 31.8 152.6"></polygon>
                    <path d="M32.2,143.3 L25.6,149.4 L24.2,147.9 L26.5,145.8 L25.1,144.3 C24.6,143.8 24.3,143.3 24.1,142.8 C23.9,142.3 23.8,141.8 23.9,141.2 C24,140.7 24.3,140.2 24.8,139.8 C25.5,139.2 26.2,138.9 27,139 C27.8,139.1 28.6,139.5 29.3,140.3 L32.2,143.3 Z M29.6,143 L28.3,141.6 C27.9,141.2 27.6,141 27.2,140.9 C26.8,140.8 26.5,141 26.2,141.2 C25.9,141.5 25.8,141.8 25.8,142.1 C25.8,142.5 26,142.8 26.4,143.2 L27.7,144.6 L29.6,143 Z" id="Shape"></path>
                    <path d="M28.1,136.4 C27.3,135.8 26.7,135.7 26.1,136.1 C26.1,136.1 26.1,136.1 26,136.2 C25.9,136.3 25.9,136.3 25.9,136.3 L26.4,137 L24.6,138.4 L23.2,136.6 L24.8,135.4 C25.5,134.8 26.2,134.6 26.8,134.6 C27.4,134.6 28,135 28.6,135.7 L28.1,136.4 Z" id="Path"></path>
                    <path d="M16.9,133.2 L13.9,134.9 L12.9,133.1 L15.5,131.6 C15.9,131.4 16.1,131.1 16.3,130.7 C16.4,130.3 16.4,129.9 16.2,129.5 C15.8,128.8 15.3,128.3 14.6,127.9 L11.2,129.9 L10.2,128.1 L18,123.6 L19,125.4 L16.1,127.1 C16.4,127.3 16.8,127.6 17.1,128 C17.5,128.4 17.7,128.7 18,129.1 C18.5,129.9 18.6,130.7 18.5,131.4 C18.4,132.1 17.7,132.7 16.9,133.2 Z" id="Path"></path>
                    <path d="M13.1,124.3 C12.3,124.6 11.5,124.8 10.7,124.7 C9.9,124.6 9.2,124.4 8.5,123.9 C7.8,123.4 7.4,122.8 7,122.1 C6.8,121.6 6.7,121.1 6.6,120.6 C6.6,120.1 6.6,119.6 6.8,119.2 C6.9,118.8 7.2,118.4 7.4,118 C7.7,117.6 8,117.3 8.4,117 C8.8,116.7 9.2,116.5 9.7,116.3 C9.9,116.2 10.1,116.1 10.2,116.1 L12.8,122.2 C13.4,121.8 13.8,121.3 14,120.7 C14.2,120.1 14.1,119.5 13.9,118.9 C13.7,118.5 13.5,118.1 13.1,117.8 C12.8,117.5 12.4,117.3 11.9,117.1 L12.4,115.6 C13.8,116 14.8,116.9 15.4,118.3 C15.7,119.1 15.9,119.9 15.8,120.7 C15.7,121.5 15.4,122.2 14.9,122.9 C14.6,123.4 13.9,123.9 13.1,124.3 Z M11.7,122.7 L9.9,118.5 C9.3,118.8 8.9,119.3 8.6,119.8 C8.4,120.3 8.4,120.9 8.6,121.5 C8.8,122.1 9.2,122.5 9.8,122.7 C10.4,122.8 11,122.9 11.7,122.7 Z" id="Shape"></path>
                    <polygon id="Path" points="13.3 113.4 4.7 115.8 4.2 113.8 7.5 110 2.7 108.4 2.2 106.4 10.8 104 11.3 106 5.5 107.6 10.1 109.2 7 113 12.7 111.4"></polygon>
                    <polygon id="Path" points="9.8 98 0.9 98.7 0.3 90.7 9.2 90 9.4 92.1 2.2 92.7 2.5 96.6 9.7 96"></polygon>
                    <path d="M4.6,88.6 C3.8,88.6 3,88.3 2.3,87.9 C1.6,87.5 1.1,86.9 0.7,86.1 C0.3,85.3 0.1,84.5 0.2,83.6 C0.2,82.7 0.5,81.9 0.9,81.2 C1.4,80.5 1.9,79.9 2.7,79.6 C3.4,79.2 4.2,79.1 5.1,79.1 C5.7,79.1 6.3,79.3 6.9,79.6 C7.5,79.9 7.9,80.2 8.3,80.7 C8.7,81.2 9,81.7 9.2,82.3 C9.4,82.9 9.5,83.6 9.5,84.2 C9.5,85.1 9.2,85.9 8.8,86.6 C8.3,87.3 7.7,87.9 7,88.2 C6.3,88.5 5.5,88.6 4.6,88.6 Z M4.7,86.5 C5.5,86.5 6.2,86.3 6.8,85.8 C7.4,85.3 7.7,84.7 7.7,83.9 C7.7,83.1 7.5,82.4 7,81.9 C6.5,81.4 5.8,81.1 5,81.1 C4.2,81.1 3.5,81.3 2.9,81.8 C2.3,82.3 2,82.9 2,83.7 C2,84.5 2.2,85.2 2.7,85.7 C3.2,86.2 3.9,86.5 4.7,86.5 Z" id="Shape"></path>
                    <polygon id="Path" points="9.6 79.3 5.6 75.3 0.7 77.7 1.1 75.5 4.4 73.9 1.8 71.4 2.2 69.2 6 73.1 11.1 70.6 10.7 72.8 7.2 74.5 9.9 77.2"></polygon>
                    <path d="M11.3,69.6 L2.7,67.1 L4,62.7 C4.2,61.8 4.6,61.2 5.2,60.8 C5.7,60.4 6.3,60.3 7,60.5 C7.9,60.8 8.4,61.4 8.6,62.5 C9.3,61.4 10.2,61 11.3,61.3 C12,61.5 12.5,62 12.8,62.6 C13.1,63.3 13,64.1 12.7,65.1 L11.3,69.6 Z M6.8,66.2 L7.4,64.2 C7.5,63.8 7.5,63.5 7.4,63.2 C7.3,62.9 7,62.7 6.7,62.6 C6.4,62.5 6.1,62.5 5.9,62.7 C5.7,62.9 5.5,63.1 5.3,63.6 L4.7,65.7 L6.8,66.2 Z M10.3,67.2 L11,65 C11.1,64.5 11.1,64.1 11,63.8 C10.9,63.5 10.6,63.3 10.3,63.2 C10,63.1 9.7,63.2 9.4,63.4 C9.1,63.6 8.9,64 8.8,64.5 L8.2,66.6 L10.3,67.2 Z" id="Shape"></path>
                    <path d="M11.3,60.4 C10.4,60 9.9,59.4 9.7,58.6 C9.5,57.8 9.6,56.9 10,55.9 C10.3,55.1 10.8,54.4 11.3,53.8 L11.1,53.7 C10.5,53.5 10,53.4 9.5,53.7 C9,53.9 8.7,54.4 8.4,55 C8.1,55.7 7.9,56.6 7.9,57.6 L6.2,57.5 C6.2,56.9 6.2,56.3 6.3,55.8 C6.4,55.3 6.6,54.7 6.8,54.1 C7.3,52.9 8,52.1 8.9,51.8 C9.8,51.4 10.8,51.5 11.9,52 L16.8,54.1 L16,56 L15,55.6 C15.5,56.6 15.5,57.7 15.1,58.8 C14.9,59.3 14.6,59.8 14.2,60.1 C13.8,60.4 13.4,60.7 12.9,60.8 C12.4,60.7 11.8,60.6 11.3,60.4 Z M12,58.5 C12.4,58.7 12.7,58.6 13.1,58.4 C13.5,58.2 13.7,57.9 13.9,57.4 C14.2,56.8 14.2,56.2 14.1,55.6 C14,55.1 13.6,54.7 13.1,54.5 L12.6,54.3 C12.1,54.8 11.8,55.3 11.5,56.1 C11.2,56.7 11.2,57.2 11.3,57.6 C11.4,58 11.6,58.3 12,58.5 Z" id="Shape"></path>
                    <path d="M13.5,50.7 L13.5,50.7 C12.7,50.3 12.2,49.7 11.7,49 C11.2,48.3 11.1,47.5 11,46.7 C11,45.9 11.2,45.1 11.6,44.3 C12,43.6 12.4,43.1 13,42.7 C13.5,42.3 14.1,42.1 14.7,41.9 L15.3,43.7 C14.8,43.8 14.4,44 14,44.2 C13.7,44.4 13.4,44.7 13.1,45.2 C12.7,45.8 12.7,46.5 12.9,47.2 C13.1,47.9 13.6,48.5 14.3,48.8 L14.3,48.8 C15,49.2 15.7,49.3 16.5,49.2 C17.3,49.1 17.8,48.6 18.2,47.9 C18.4,47.5 18.5,47.1 18.6,46.7 C18.6,46.3 18.5,45.8 18.4,45.3 L20.1,44.8 C20.3,45.5 20.4,46.2 20.4,46.8 C20.4,47.4 20.1,48.1 19.7,48.8 C19.3,49.6 18.7,50.1 18,50.6 C17.3,51 16.5,51.2 15.7,51.2 C14.9,51.2 14.2,51.1 13.5,50.7 Z" id="Path"></path>
                    <polygon id="Path" points="15.7 41.5 14.2 40.5 18.8 34.1 20.3 35.1 18.6 37.5 24.4 41.7 23.2 43.4 17.4 39.2"></polygon>
                    <path d="M24,37.6 C23.3,37 23,36.2 23,35.4 C23.1,34.6 23.5,33.7 24.2,32.9 C24.8,32.2 25.4,31.7 26.1,31.3 L26,31.2 C25.5,30.8 25,30.6 24.5,30.7 C24,30.8 23.5,31.1 23,31.6 C22.5,32.2 22,33 21.7,33.9 L20.1,33.2 C20.3,32.6 20.5,32.1 20.8,31.6 C21.1,31.1 21.4,30.6 21.9,30.1 C22.8,29.1 23.7,28.6 24.6,28.5 C25.5,28.4 26.5,28.8 27.4,29.6 L31.4,33.1 L30,34.6 L29.2,33.9 C29.4,35 29,36 28.2,36.9 C27.8,37.3 27.4,37.7 26.9,37.9 C26.4,38.1 25.9,38.2 25.4,38.1 C25,38.2 24.5,38 24,37.6 Z M25.3,36 C25.6,36.3 26,36.4 26.4,36.3 C26.8,36.2 27.2,36 27.5,35.6 C28,35.1 28.2,34.5 28.2,34 C28.2,33.4 28,33 27.6,32.6 L27.2,32.3 C26.6,32.6 26.1,33 25.6,33.6 C25.2,34.1 24.9,34.5 24.9,35 C24.9,35.5 25,35.7 25.3,36 Z" id="Shape"></path>
                    <polygon id="Path" points="27 27.5 25.8 26.2 31.6 20.9 32.8 22.2 30.7 24.2 35.5 29.5 34 30.9 29.2 25.6"></polygon>
                    <path d="M38.3,26.9 L33,19.7 L34.7,18.5 L36.5,21 L38.2,19.8 C38.8,19.4 39.3,19.1 39.9,19 C40.4,18.8 41,18.9 41.5,19 C42,19.2 42.5,19.5 42.8,20 C43.3,20.7 43.5,21.5 43.4,22.3 C43.2,23.1 42.7,23.8 41.9,24.4 L38.3,26.9 Z M39,24.4 L40.6,23.3 C41,23 41.3,22.7 41.4,22.3 C41.5,22 41.4,21.6 41.2,21.3 C41,21 40.7,20.8 40.3,20.8 C39.9,20.8 39.5,21 39.1,21.3 L37.6,22.4 L39,24.4 Z" id="Shape"></path>
                    <path d="M42.7,18.3 L42.7,18.3 C42.3,17.5 42,16.8 42,15.9 C42,15.1 42.2,14.3 42.6,13.6 C43,12.9 43.6,12.3 44.3,11.9 C45,11.5 45.7,11.3 46.3,11.2 C46.9,11.1 47.6,11.2 48.2,11.4 L47.8,13.2 C47.3,13.1 46.9,13 46.5,13 C46.1,13 45.7,13.1 45.3,13.4 C44.7,13.8 44.3,14.3 44.1,15 C44,15.7 44.1,16.4 44.5,17.1 L44.5,17.1 C44.9,17.8 45.5,18.3 46.2,18.5 C46.9,18.7 47.6,18.7 48.3,18.3 C48.7,18.1 49,17.8 49.2,17.4 C49.4,17 49.6,16.6 49.7,16.1 L51.4,16.5 C51.3,17.2 51,17.8 50.6,18.4 C50.2,18.9 49.7,19.4 49,19.8 C48.2,20.2 47.5,20.5 46.6,20.4 C45.8,20.4 45,20.2 44.3,19.8 C43.7,19.6 43.1,19 42.7,18.3 Z" id="Path"></path>
                    <path d="M52.3,17.9 L53.3,13.8 C52.6,13.9 52,13.8 51.5,13.5 C51,13.2 50.6,12.8 50.3,12.2 C49.9,11.4 50,10.6 50.3,9.9 C50.7,9.2 51.4,8.6 52.4,8.1 L56.5,6.3 L60,14.5 L58.1,15.3 L56.9,12.5 L55.2,13.2 L54.4,16.8 L52.3,17.9 Z M52.2,11.5 C52.4,11.9 52.6,12.1 53,12.2 C53.4,12.3 53.8,12.2 54.3,12 L56.3,11.1 L55.2,8.6 L53.2,9.5 C52.7,9.7 52.4,10 52.2,10.3 C52,10.7 52,11.1 52.2,11.5 Z" id="Shape"></path>
                    <polygon id="Path" points="69.1 7.5 68.8 5.6 75.8 4.3 76.1 6.2"></polygon>
                </g>
            </g>
        </g>
    </g>
</svg>