<?xml version="1.0" encoding="UTF-8"?>
<svg width="55px" height="90px" viewBox="0 0 55 90" version="1.1" xmlns="http://www.w3.org/2000/svg" xmlns:xlink="http://www.w3.org/1999/xlink">
    <!-- Generator: sketchtool 55.2 (78181) - https://sketchapp.com -->
    <title>4BBA1AF8-7410-4BCE-BC0B-2CC989611597</title>
    <desc>Created with sketchtool.</desc>
    <g id="Symbols" stroke="none" stroke-width="1" fill="none" fill-rule="evenodd">
        <g id="img/featured-icon" transform="translate(-60.000000, -43.000000)" fill="#000000">
            <g id="featured-icon">
                <path d="M85.446,87.066 C85.446,89.529 83.442,91.534 80.929,91.534 C78.467,91.534 76.463,89.529 76.463,87.066 L76.463,75.67 C76.463,73.207 78.467,71.203 80.979,71.203 C83.442,71.203 85.446,73.207 85.446,75.67 L85.446,87.066 Z M89.087,84.709 L89.087,75.67 C89.087,73.207 91.091,71.203 93.554,71.203 L93.603,71.203 C96.066,71.203 98.07,73.207 98.07,75.67 L98.07,84.709 C98.07,87.171 96.066,89.175 93.554,89.175 C91.091,89.175 89.087,87.171 89.087,84.709 L89.087,84.709 Z M63.641,97.284 C63.641,94.821 65.645,92.816 68.108,92.816 L75.223,92.816 C76.756,94.338 78.779,95.174 80.979,95.174 C83.131,95.174 85.154,94.338 86.685,92.816 L96.009,92.816 C98.472,92.816 100.476,94.821 100.476,97.284 C100.476,99.747 98.472,101.751 96.009,101.751 L81.369,101.751 C81.105,101.742 80.851,101.743 80.613,101.753 C79.63,101.79 78.844,102.623 78.863,103.606 C78.882,104.59 79.698,105.392 80.683,105.392 L80.926,105.392 C81.463,105.404 83.364,105.512 85.322,106.449 C88.319,107.881 90.117,110.569 90.67,114.438 C90.739,114.92 90.992,115.348 91.382,115.639 C91.771,115.931 92.248,116.053 92.731,115.983 C93.724,115.841 94.417,114.917 94.275,113.924 C93.769,110.377 92.381,107.51 90.148,105.392 L96.009,105.392 C100.48,105.392 104.118,101.755 104.118,97.284 C104.118,94.241 102.387,91.443 99.679,90.062 C100.991,88.577 101.711,86.688 101.711,84.709 L101.711,63.684 C101.711,61.221 103.726,59.216 106.202,59.216 C108.679,59.216 110.694,61.221 110.694,63.684 L110.694,107.503 C110.694,119.499 100.934,129.259 88.937,129.259 L85.398,129.259 C73.401,129.259 63.641,119.499 63.641,107.503 L63.641,97.284 Z M72.624,89.175 L68.108,89.175 C66.508,89.175 64.973,89.643 63.641,90.53 L63.641,51.108 C63.641,48.645 65.656,46.642 68.133,46.642 C70.609,46.642 72.624,48.645 72.624,51.108 L72.624,89.175 Z M106.202,55.576 C101.718,55.576 98.07,59.212 98.07,63.684 L98.07,68.917 C96.737,68.029 95.198,67.561 93.554,67.561 C91.092,67.561 88.818,68.654 87.266,70.569 C85.714,68.654 83.439,67.561 80.929,67.561 C79.239,67.561 77.637,68.073 76.265,69.045 L76.265,51.108 C76.265,46.637 72.617,43 68.133,43 C63.648,43 60,46.637 60,51.108 L60,107.503 C60,121.506 71.393,132.9 85.398,132.9 L88.937,132.9 C102.942,132.9 114.335,121.506 114.335,107.503 L114.335,63.684 C114.335,59.212 110.687,55.576 106.202,55.576 L106.202,55.576 Z" id="rock_icon"></path>
            </g>
        </g>
    </g>
</svg>