<?xml version="1.0" encoding="UTF-8"?>
<svg width="151px" height="151px" viewBox="0 0 151 151" version="1.1" xmlns="http://www.w3.org/2000/svg" xmlns:xlink="http://www.w3.org/1999/xlink">
    <!-- Generator: sketchtool 55.2 (78181) - https://sketchapp.com -->
    <title>BABAEA89-509A-46FD-B62F-42B20787ACC3</title>
    <desc>Created with sketchtool.</desc>
    <g id="Desktop-1440" stroke="none" stroke-width="1" fill="none" fill-rule="evenodd">
        <g id="Home-1920" transform="translate(-1205.000000, -5557.000000)" fill="#FFFFFF">
            <g id="Section/PML_banner" transform="translate(0.000000, 5557.000000)">
                <g id="img/PML_logo" transform="translate(1205.000000, 0.000000)">
                    <path d="M0,0 L151,0 L151,151 L0,151 L0,0 Z M16.5063477,54.4873047 L16.5063477,100 L23.6474609,100 L23.6474609,83.75 L34.6923828,83.75 C39.0299696,83.75 42.6639665,82.3323709 45.5944824,79.4970703 C48.5249984,76.6617697 49.9902344,73.2076213 49.9902344,69.1345215 C49.9902344,65.0614217 48.5249984,61.6019836 45.5944824,58.7561035 C42.6639665,55.9102234 39.0299696,54.4873047 34.6923828,54.4873047 L16.5063477,54.4873047 Z M34.6923828,60.9936523 C36.9352326,60.9936523 38.8500897,61.7765221 40.4370117,63.3422852 C42.0239337,64.9080482 42.8173828,66.8387743 42.8173828,69.1345215 C42.8173828,71.4302686 42.0239337,73.3557051 40.4370117,74.9108887 C38.8500897,76.4660722 36.9352326,77.2436523 34.6923828,77.2436523 L23.6474609,77.2436523 L23.6474609,60.9936523 L34.6923828,60.9936523 Z M78.6771483,76.6088867 L61.1258788,54.4873047 L54.9686522,54.4873047 L54.9686522,100 L62.1097655,100 L62.1097655,66.8652344 L78.6771483,87.6538086 L95.2762694,66.8652344 L95.2762694,100 L102.417383,100 L102.417383,54.4873047 L96.2284179,54.4873047 L78.6771483,76.6088867 Z M139.229297,100 L139.229297,93.4936523 L117.139453,93.4936523 L117.139453,54.4873047 L109.99834,54.4873047 L109.99834,100 L139.229297,100 Z M115.996094,23 L115.996094,20.9980469 L109.199219,20.9980469 L109.199219,8.99609375 L107.001953,8.99609375 L107.001953,23 L115.996094,23 Z M116.99375,23 L119.191016,23 L119.191016,8.99609375 L116.99375,8.99609375 L116.99375,23 Z M125.686719,23 L127.883984,23 L133.382031,8.99609375 L131.087109,8.99609375 L126.780469,20.1972656 L122.483594,8.99609375 L120.178906,8.99609375 L125.686719,23 Z M136.576953,20.9980469 L136.576953,16.7011719 L142.680469,16.7011719 L142.680469,14.6992188 L136.576953,14.6992188 L136.576953,10.9980469 L144.282031,10.9980469 L144.282031,8.99609375 L134.379687,8.99609375 L134.379687,23 L144.477344,23 L144.477344,20.9980469 L136.576953,20.9980469 Z" id="Combined-Shape"></path>
                </g>
            </g>
        </g>
    </g>
</svg>