<?xml version="1.0" encoding="UTF-8"?>
<svg width="316px" height="131px" viewBox="0 0 316 131" version="1.1" xmlns="http://www.w3.org/2000/svg" xmlns:xlink="http://www.w3.org/1999/xlink">
    <!-- Generator: sketchtool 56.3 (101010) - https://sketch.com -->
    <title>26EA0436-37CB-4EED-B2EA-FF0F890705F1</title>
    <desc>Created with sketchtool.</desc>
    <g id="Symbols" stroke="none" stroke-width="1" fill="none" fill-rule="evenodd">
        <g id="Elements/PIKE-MEDIA-LAB" transform="translate(-365.000000, -313.000000)" fill="#FFFFFF">
            <g id="Group-4">
                <g id="LAB" transform="translate(365.000000, 313.000000)">
                    <polygon id="Fill-8" points="80.9478875 131 0 131 0 0 13.9906564 0 13.9906564 117.937736 80.9478875 117.937736"></polygon>
                    <path d="M179.015251,81.3959091 L154.106885,19.6400914 L129.108966,81.3959091 L179.015251,81.3959091 Z M184.611303,94.549036 L123.60455,94.549036 L108.803233,131 L94.0039984,131 L147.609051,0 L160.515166,0 L214.120219,131 L199.410537,131 L184.611303,94.549036 Z" id="Fill-9"></path>
                    <path d="M236.090924,117.937526 L275.565739,117.937526 C283.459431,117.937526 289.808705,115.652226 294.615679,111.085841 C299.418417,106.517348 301.820845,100.673388 301.820845,93.5455277 C301.820845,86.2974991 299.386639,80.1309827 294.522464,75.0459783 C289.65617,69.9630822 283.336555,67.4184718 275.565739,67.4184718 L236.090924,67.4184718 L236.090924,117.937526 Z M272.720536,13.1531269 L236.090924,13.1531269 L236.090924,55.0875471 L272.720536,55.0875471 C279.756217,55.0875471 285.281378,53.1838328 289.289662,49.3764041 C293.297946,45.5710837 295.302087,40.3469375 295.302087,33.7081818 C295.302087,27.6175609 293.297946,22.6716985 289.289662,18.8642699 C285.281378,15.0589494 279.756217,13.1531269 272.720536,13.1531269 L272.720536,13.1531269 Z M294.384758,60.8408542 C294.997017,61.0854067 295.761811,61.418504 296.67914,61.8464708 C297.598588,62.2723293 299.310371,63.429737 301.820845,65.3165857 C304.3292,67.2055425 306.532485,69.2758055 308.4307,71.5273746 C310.326796,73.7852683 312.055527,76.9054202 313.616893,80.8920467 C315.17826,84.8807815 315.957884,89.1014194 315.957884,93.5455277 C315.957884,104.385947 312.22501,113.33741 304.759264,120.404133 C297.291399,127.468747 287.558812,131 275.565739,131 L221.953885,131 L221.953885,0 L272.720536,0 C283.368334,0 292.136984,3.24242814 299.020131,9.72728443 C305.905396,16.2142489 309.348029,24.2085841 309.348029,33.7081818 C309.348029,37.5451254 308.858645,41.0953523 307.879878,44.3525379 C306.898993,47.6097235 305.644815,50.2133638 304.115227,52.1634588 C302.585639,54.1114455 301.070881,55.7706074 299.570952,57.1409443 C298.071023,58.5133896 296.831676,59.4410023 295.852909,59.927999 L294.384758,60.8408542 Z" id="Fill-10"></path>
                </g>
            </g>
        </g>
    </g>
</svg>