<?xml version="1.0" encoding="UTF-8"?>
<svg width="1246px" height="162px" viewBox="0 0 1246 162" version="1.1" xmlns="http://www.w3.org/2000/svg" xmlns:xlink="http://www.w3.org/1999/xlink">
    <!-- Generator: sketchtool 55.2 (78181) - https://sketchapp.com -->
    <title>893E9FB8-D27E-4FED-A33C-82E0E75919B8</title>
    <desc>Created with sketchtool.</desc>
    <g id="Symbols" stroke="none" stroke-width="1" fill="none" fill-rule="evenodd">
        <g id="Elements/PIKE-MEDIALAB" transform="translate(0.000000, -193.000000)">
            <g id="Group-38">
                <g id="Group-24" transform="translate(0.000000, 193.000000)">
                    <g id="MEDIALAB">
                        <g>
                            <g id="LAB" transform="translate(855.482924, 1.268918)" fill="#FFFFFF">
                                <polygon id="Fill-8" points="99.7616635 160.590133 8.52651283e-13 160.590133 8.52651283e-13 -1.42108547e-14 17.2423419 -1.42108547e-14 17.2423419 144.57738 99.7616635 144.57738"></polygon>
                                <path d="M217.717576,99.7817289 L186.814173,24.0777948 L155.799662,99.7817289 L217.717576,99.7817289 Z M224.660506,115.90561 L148.970424,115.90561 L130.606671,160.589358 L112.245501,160.589358 L178.752416,0.00180905861 L194.764823,0.00180905861 L261.271737,160.589358 L243.021676,160.589358 L224.660506,115.90561 Z" id="Fill-9"></path>
                                <path d="M292.246973,144.576604 L340.392718,144.576604 C350.020317,144.576604 357.764255,141.775148 363.627116,136.177404 C369.48481,130.577075 372.414948,123.413203 372.414948,114.67545 C372.414948,105.790388 369.446051,98.2311072 363.513425,91.9976081 C357.578214,85.7666934 349.870451,82.6473595 340.392718,82.6473595 L292.246973,82.6473595 L292.246973,144.576604 Z M336.922545,16.12569 L292.246973,16.12569 L292.246973,67.5313826 L336.922545,67.5313826 C345.503665,67.5313826 352.242468,65.197697 357.1312,60.5303258 C362.019932,55.8655389 364.464299,49.4614715 364.464299,41.3232921 C364.464299,33.8570488 362.019932,27.7941181 357.1312,23.1267468 C352.242468,18.46196 345.503665,16.12569 336.922545,16.12569 L336.922545,16.12569 Z M363.345471,74.5841268 C364.092218,74.8839137 365.025004,75.2922441 366.143831,75.8168711 C367.265243,76.3389137 369.353031,77.7577325 372.414948,80.0707432 C375.474282,82.3863382 378.161534,84.924189 380.476706,87.6842955 C382.789293,90.4521552 384.897753,94.277022 386.802085,99.1640646 C388.706416,104.053692 389.65729,109.227599 389.65729,114.67545 C389.65729,127.964278 385.104465,138.93751 375.998813,147.600317 C366.890578,156.260539 355.020157,160.589358 340.392718,160.589358 L275.004631,160.589358 L275.004631,0.00180905861 L336.922545,0.00180905861 C349.909209,0.00180905861 360.603957,3.97656926 368.999037,11.9260897 C377.396701,19.8781944 381.595533,29.6781234 381.595533,41.3232921 C381.595533,46.0268445 380.998653,50.3789226 379.804893,54.3717734 C378.608549,58.3646242 377.078882,61.5563205 375.213308,63.9468622 C373.347735,66.3348196 371.500249,68.3687183 369.67085,70.0485585 C367.841451,71.730983 366.329872,72.8681055 365.136112,73.4650949 L363.345471,74.5841268 Z" id="Fill-10"></path>
                            </g>
                            <g id="MEDIA" transform="translate(185.000000, 1.053841)" fill="#FFFFFF">
                                <polygon id="Fill-1" points="148.085634 0 81.4985802 87.354812 14.9115264 0 7.95807864e-13 0 7.95807864e-13 160.80521 17.2657056 160.80521 17.2657056 29.9412008 81.4985802 114.827222 145.842696 29.9412008 145.842696 160.80521 162.99716 160.80521 162.99716 0"></polygon>
                                <polygon id="Fill-2" points="194.996603 0 194.996603 160.80521 306.994652 160.80521 306.994652 144.768423 212.177566 144.768423 212.177566 84.9998861 286.356387 84.9998861 286.356387 68.9630994 212.177566 68.9630994 212.177566 16.1480634 304.652027 16.1480634 304.652027 0"></polygon>
                                <path d="M376.015092,16.3405085 L342.760342,16.3405085 L342.760342,144.791423 L376.015092,144.791423 C394.825859,144.791423 410.613467,138.557924 423.377916,126.090926 C436.142365,113.623928 442.52459,98.4485101 442.52459,80.567258 C442.52459,62.6885901 436.142365,47.5157571 423.377916,35.0435902 C410.613467,22.576592 394.825859,16.3405085 376.015092,16.3405085 L376.015092,16.3405085 Z M325.518,0.21662759 L376.015092,0.21662759 C399.378685,0.21662759 419.158413,8.09378565 435.356861,23.8455174 C451.552724,39.5998335 459.65324,58.4889898 459.65324,80.5104018 C459.65324,102.536983 451.552724,121.423554 435.356861,137.175286 C419.158413,152.929602 399.378685,160.804176 376.015092,160.804176 L325.518,160.804176 L325.518,0.21662759 Z" id="Fill-3"></path>
                                <polygon id="Fill-5" points="476.8607 160.80521 494.103042 160.80521 494.103042 0.215076968 476.8607 0.215076968"></polygon>
                                <path d="M613.197161,99.9968059 L582.293758,24.2928718 L551.279247,99.9968059 L613.197161,99.9968059 Z M620.140091,116.120687 L544.450008,116.120687 L526.086255,160.804435 L507.725086,160.804435 L574.232,0.216886027 L590.244408,0.216886027 L656.751322,160.804435 L638.50126,160.804435 L620.140091,116.120687 Z" id="Fill-7"></path>
                            </g>
                            <path d="M84.5029586,0 L84.504111,0 L169,80.8278586 L84.8625008,162 L84.5029586,0 Z M-2.91322522e-13,0 L0.00115236333,0 L84.4970414,80.8278586 L0.360689723,162 L-2.91322522e-13,0 Z" id="Combined-triangles" fill="#01DA00"></path>
                        </g>
                    </g>
                </g>
            </g>
        </g>
    </g>
</svg>