<?xml version="1.0" encoding="UTF-8"?>
<svg width="683px" height="132px" viewBox="0 0 683 132" version="1.1" xmlns="http://www.w3.org/2000/svg" xmlns:xlink="http://www.w3.org/1999/xlink">
    <!-- Generator: sketchtool 56.3 (101010) - https://sketch.com -->
    <title>1067D101-F316-4831-B8CE-8CB6E166A1B3</title>
    <desc>Created with sketchtool.</desc>
    <defs>
        <polygon id="path-1" points="0 131.999726 532 131.999726 532 0.205967883 0 0.205967883"></polygon>
    </defs>
    <g id="Symbols" stroke="none" stroke-width="1" fill="none" fill-rule="evenodd">
        <g id="Elements/PIKE-MEDIA-LAB" transform="translate(0.000000, -157.000000)">
            <g id="Group-4">
                <g id="MEDIA" transform="translate(0.000000, 157.000000)">
                    <g id="Group-12" transform="translate(151.000000, 0.000000)">
                        <polygon id="Fill-1" fill="#FFFFFF" points="121.427949 0 66.8275862 70.8072204 12.227223 0 0 0 0 130.343935 14.1576139 130.343935 14.1576139 24.2694496 66.8275862 93.0755416 119.588775 24.2694496 119.588775 130.343935 133.655172 130.343935 133.655172 0"></polygon>
                        <polygon id="Fill-2" fill="#FFFFFF" points="157.241379 0 157.241379 130.343935 246.344828 130.343935 246.344828 117.344991 170.910216 117.344991 170.910216 68.8983873 229.925429 68.8983873 229.925429 55.8994435 170.910216 55.8994435 170.910216 13.0891413 244.481081 13.0891413 244.481081 0"></polygon>
                        <g id="Group-11">
                            <path d="M304.388493,13.4398521 L277.468395,13.4398521 L277.468395,118.857467 L304.388493,118.857467 C319.616023,118.857467 332.396271,113.741734 342.729238,103.510267 C353.062205,93.2788009 358.228688,80.8245781 358.228688,66.14972 C358.228688,51.4769827 353.062205,39.0248809 342.729238,28.7891726 C332.396271,18.5577063 319.616023,13.4398521 304.388493,13.4398521 L304.388493,13.4398521 Z M263.510523,0.207240454 L304.388493,0.207240454 C323.301587,0.207240454 339.313502,6.67189831 352.42633,19.5990931 C365.537066,32.5284088 372.094525,48.0304378 372.094525,66.103059 C372.094525,84.1799222 365.537066,99.6798302 352.42633,112.607025 C339.313502,125.536341 323.301587,131.998878 304.388493,131.998878 L263.510523,131.998878 L263.510523,0.207240454 Z" id="Fill-3" fill="#FFFFFF"></path>
                            <mask id="mask-2" fill="white">
                                <use xlink:href="#path-1"></use>
                            </mask>
                            <g id="Clip-6"></g>
                            <polygon id="Fill-5" fill="#FFFFFF" mask="url(#mask-2)" points="386.024159 131.999726 399.982031 131.999726 399.982031 0.205967883 386.024159 0.205967883"></polygon>
                            <path d="M496.390075,82.0952397 L471.373419,19.9662297 L446.26682,82.0952397 L496.390075,82.0952397 Z M502.010456,95.3278514 L440.738473,95.3278514 L425.872807,131.99909 L411.009231,131.99909 L464.847335,0.207452549 L477.80956,0.207452549 L531.647664,131.99909 L516.874032,131.99909 L502.010456,95.3278514 Z" id="Fill-7" fill="#FFFFFF" mask="url(#mask-2)"></path>
                        </g>
                    </g>
                    <g id="Group-3" fill="#01DA00">
                        <polygon id="Fill-1" points="68.1886792 0 68.4899876 131 139 65.3607992 68.189645 0"></polygon>
                        <polygon id="Fill-2" points="0 0 0.302269941 131 70.8113208 65.3607992 0.00096571866 0"></polygon>
                    </g>
                </g>
            </g>
        </g>
    </g>
</svg>