<?xml version="1.0" encoding="UTF-8"?>
<svg width="577px" height="162px" viewBox="0 0 577 162" version="1.1" xmlns="http://www.w3.org/2000/svg" xmlns:xlink="http://www.w3.org/1999/xlink">
    <!-- Generator: sketchtool 55.2 (78181) - https://sketchapp.com -->
    <title>F96DAB27-708A-4BEE-B0CA-CD3B7BDCB00F</title>
    <desc>Created with sketchtool.</desc>
    <defs>
        <polygon id="path-1" points="0 0.25252161 112.449225 0.25252161 112.449225 160.84007 0 160.84007"></polygon>
        <polygon id="path-3" points="0 160.859051 430.963888 160.859051 430.963888 0.0538410301 0 0.0538410301"></polygon>
    </defs>
    <g id="Symbols" stroke="none" stroke-width="1" fill="none" fill-rule="evenodd">
        <g id="Elements/PIKE-MEDIALAB">
            <g id="Group-38">
                <g id="PIKE">
                    <g transform="translate(0.000000, 1.000000)">
                        <g id="Group-3" transform="translate(0.000000, 0.017947)">
                            <mask id="mask-2" fill="white">
                                <use xlink:href="#path-1"></use>
                            </mask>
                            <g id="Clip-2"></g>
                            <path d="M60.8173572,16.3789869 L17.2497377,16.3789869 L17.2497377,85.136136 L60.8173572,85.136136 C71.1949078,85.136136 79.5202105,82.0038802 85.7932653,75.7341999 C92.0637355,69.4593509 95.2015552,61.135097 95.2015552,50.7588536 C95.2015552,40.3826103 92.0637355,32.055772 85.7932653,25.7886761 C79.5202105,19.5138271 71.1949078,16.3789869 60.8173572,16.3789869 L60.8173572,16.3789869 Z M-0.000516939007,0.25252161 L60.8173572,0.25252161 C75.6741843,0.25252161 87.9954255,5.06720188 97.7759115,14.6991468 C107.556397,24.3285073 112.449225,36.3329034 112.449225,50.7019975 C112.449225,65.0762604 107.538305,77.0961626 97.7216329,86.7617044 C87.9023765,96.4349992 75.6018128,101.265186 60.8173572,101.265186 L17.2497377,101.265186 L17.2497377,160.84007 L-0.000516939007,160.84007 L-0.000516939007,0.25252161 Z" id="Fill-1" fill="#FFFFFF" mask="url(#mask-2)"></path>
                        </g>
                        <mask id="mask-4" fill="white">
                            <use xlink:href="#path-3"></use>
                        </mask>
                        <g id="Clip-5"></g>
                        <polygon id="Fill-4" fill="#FFFFFF" mask="url(#mask-4)" points="131.68341 160.859051 149.640239 160.859051 149.640239 0.0538410301 131.68341 0.0538410301"></polygon>
                        <polygon id="Fill-6" fill="#FFFFFF" mask="url(#mask-4)" points="198.858247 90.7754207 281.628423 0.0538410301 303.414686 0.0538410301 242.54481 66.6671902 309.256494 160.859051 288.478422 160.859051 230.977823 79.3372092 198.858247 113.763121 198.858247 160.859051 181.56349 160.859051 181.56349 0.0538410301 198.858247 0.0538410301"></polygon>
                        <polygon id="Fill-7" fill="#FFFFFF" mask="url(#mask-4)" points="336.369996 144.824594 430.963888 144.824594 430.963888 160.859051 319.232509 160.859051 319.232509 0.0538410301 428.624273 0.0538410301 428.624273 16.2021643 336.369996 16.2021643 336.369996 69.0206382 410.374763 69.0206382 410.374763 85.0525072 336.369996 85.0525072"></polygon>
                    </g>
                    <polygon id="Fill-1" fill="#00DA00" points="449 0 532.430978 80.9971262 449.03419 162 493.605184 162 577 80.9971262 493.605184 0"></polygon>
                </g>
            </g>
        </g>
    </g>
</svg>