<?xml version="1.0" encoding="UTF-8"?>
<svg width="20px" height="20px" viewBox="0 0 20 20" version="1.1" xmlns="http://www.w3.org/2000/svg" xmlns:xlink="http://www.w3.org/1999/xlink">
    <!-- Generator: sketchtool 55.2 (78181) - https://sketchapp.com -->
    <title>C65483E3-CE9C-4ACB-8484-F78D9429F4E1</title>
    <desc>Created with sketchtool.</desc>
    <defs>
        <polygon id="path-1" points="0 0 20 0 20 20 0 20"></polygon>
    </defs>
    <g id="Symbols" stroke="none" stroke-width="1" fill="none" fill-rule="evenodd">
        <g id="Section/footer" transform="translate(-1048.000000, -76.000000)">
            <g id="Group" transform="translate(135.000000, 74.000000)">
                <g id="Stacked-Group-4" transform="translate(797.000000, 0.000000)">
                    <g id="insta" transform="translate(116.000000, 2.000000)">
                        <mask id="mask-2" fill="white">
                            <use xlink:href="#path-1"></use>
                        </mask>
                        <g id="Clip-2"></g>
                        <path d="M17.646805,4.60672218 C17.3519725,4.90011649 16.9449598,5.06982497 16.5280235,5.06982497 C16.1122377,5.06982497 15.7037868,4.90011649 15.4103925,4.60672218 C15.11556,4.31188966 14.9459953,3.90358257 14.9459953,3.48779681 C14.9459953,3.07071666 15.1154161,2.66226575 15.4103925,2.36887144 C15.7039306,2.07403892 16.1122377,1.90576865 16.5280235,1.90576865 C16.9449598,1.90576865 17.3534107,2.07403892 17.646805,2.36887144 C17.9416375,2.66226575 18.1100516,3.07071666 18.1100516,3.48779681 C18.1100516,3.90343875 17.9416375,4.31188966 17.646805,4.60672218 L17.646805,4.60672218 Z M9.99985618,14.4968431 C7.52038659,14.4968431 5.50286922,12.4797572 5.50286922,10.0001438 C5.50286922,7.52038659 7.52024277,5.50315687 9.99985618,5.50315687 C12.4796134,5.50315687 14.496987,7.52038659 14.496987,10.0001438 C14.496987,12.4797572 12.4793258,14.4968431 9.99985618,14.4968431 L9.99985618,14.4968431 Z M20,15.4472106 L20,4.55264558 C20,2.04239835 17.9574578,0 15.4470668,0 L4.55235794,0 C2.04211071,0 0,2.04239835 0,4.55264558 L0,15.4472106 C0,17.9577455 2.04211071,20 4.55235794,20 L15.4472106,20 C17.9576016,20 20,17.9577455 20,15.4472106 L20,15.4472106 Z" id="Fill-1" fill="#FFFFFF" mask="url(#mask-2)"></path>
                    </g>
                </g>
            </g>
        </g>
    </g>
</svg>