<?xml version="1.0" encoding="UTF-8"?>
<svg width="169px" height="54px" viewBox="0 0 169 54" version="1.1" xmlns="http://www.w3.org/2000/svg" xmlns:xlink="http://www.w3.org/1999/xlink">
    <!-- Generator: sketchtool 55.2 (78181) - https://sketchapp.com -->
    <title>5EC52CD4-FB6F-46E4-B2D0-CF3211B4CFB6</title>
    <desc>Created with sketchtool.</desc>
    <defs>
        <polygon id="path-1" points="0.245390226 0.418114286 7.33068346 0.418114286 7.33068346 9 0.245390226 9"></polygon>
        <polygon id="path-3" points="0 54 169 54 169 0.577285714 0 0.577285714"></polygon>
    </defs>
    <g id="Symbols" stroke="none" stroke-width="1" fill="none" fill-rule="evenodd">
        <g id="Section/footer" transform="translate(-135.000000, -76.000000)">
            <g id="Group" transform="translate(135.000000, 74.000000)">
                <g id="img/logo-light" transform="translate(0.000000, 2.000000)">
                    <g id="logo-light">
                        <polygon id="Fill-1" fill="#FFFFFF" points="19.553739 20.00384 0.00750719439 40 10.4537682 40 30 20.00384 10.4537682 0.01024 0 0"></polygon>
                        <polygon id="Fill-2" fill="#FFFFFF" points="149 0 149 40 169 19.9993663"></polygon>
                        <polygon id="Fill-3" fill="#FFFFFF" points="45.1767401 45 41.500665 49.8897213 37.8232599 45 37 45 37 54 37.9535983 54 37.9535983 46.6762062 41.500665 51.4270303 45.0530516 46.6762062 45.0530516 54 46 54 46 45"></polygon>
                        <polygon id="Fill-4" fill="#FFFFFF" points="55 45 55 54 61 54 61 53.1018879 55.9193238 53.1018879 55.9193238 49.7575667 59.8932163 49.7575667 59.8932163 48.8608031 55.9193238 48.8608031 55.9193238 45.9035061 60.8741708 45.9035061 60.8741708 45"></polygon>
                        <g id="Group-18">
                            <g id="Group-7" transform="translate(68.345865, 45.000000)">
                                <mask id="mask-2" fill="white">
                                    <use xlink:href="#path-1"></use>
                                </mask>
                                <g id="Clip-6"></g>
                                <path d="M2.9125406,1.28082857 L1.15646541,1.28082857 L1.15646541,8.14397143 L2.9125406,8.14397143 C3.90620977,8.14397143 4.73977368,7.81097143 5.41450301,7.14497143 C6.08923233,6.47768571 6.42596165,5.66768571 6.42596165,4.7124 C6.42596165,3.75711429 6.08923233,2.94582857 5.41450301,2.27854286 C4.73977368,1.61382857 3.90620977,1.28082857 2.9125406,1.28082857 L2.9125406,1.28082857 Z M0.245390226,0.418114286 L2.9125406,0.418114286 C4.14636767,0.418114286 5.19213459,0.839828571 6.04602932,1.68197143 C6.90246541,2.52282857 7.33068346,3.53211429 7.33068346,4.70854286 C7.33068346,5.88497143 6.90246541,6.89554286 6.04602932,7.7364 C5.19213459,8.57982857 4.14636767,9.00025714 2.9125406,9.00025714 L0.245390226,9.00025714 L0.245390226,0.418114286 Z" id="Fill-5" fill="#FFFFFF" mask="url(#mask-2)"></path>
                            </g>
                            <mask id="mask-4" fill="white">
                                <use xlink:href="#path-3"></use>
                            </mask>
                            <g id="Clip-9"></g>
                            <polygon id="Fill-8" fill="#FFFFFF" mask="url(#mask-4)" points="83.9281955 54 84.8392707 54 84.8392707 45.4178571 83.9281955 45.4178571"></polygon>
                            <path d="M98.2144135,50.7507429 L96.581594,46.7058857 L94.9449624,50.7507429 L98.2144135,50.7507429 Z M98.5816391,51.6121714 L94.5840902,51.6121714 L93.6132932,53.9997429 L92.6437669,53.9997429 L96.1559173,45.4188857 L97.0009173,45.4188857 L100.515609,53.9997429 L99.5511654,53.9997429 L98.5816391,51.6121714 Z" id="Fill-10" fill="#FFFFFF" mask="url(#mask-4)"></path>
                            <polygon id="Fill-11" fill="#FFFFFF" mask="url(#mask-4)" points="113.588458 54.0001286 108.320232 54.0001286 108.320232 45.4179857 109.230037 45.4179857 109.230037 53.1438429 113.588458 53.1438429"></polygon>
                            <path d="M126.452789,50.7507429 L124.82124,46.7058857 L123.183338,50.7507429 L126.452789,50.7507429 Z M126.820014,51.6121714 L122.822465,51.6121714 L121.851668,53.9997429 L120.882142,53.9997429 L124.395563,45.4188857 L125.240563,45.4188857 L128.753984,53.9997429 L127.789541,53.9997429 L126.820014,51.6121714 Z" id="Fill-12" fill="#FFFFFF" mask="url(#mask-4)"></path>
                            <path d="M137.469429,53.1438429 L140.012053,53.1438429 C140.520323,53.1438429 140.929481,52.9947 141.239526,52.6951286 C141.548301,52.3955571 141.703323,52.0124143 141.703323,51.5457 C141.703323,51.0712714 141.545759,50.6675571 141.233173,50.3345571 C140.919316,50.0015571 140.512699,49.8357 140.012053,49.8357 L137.469429,49.8357 L137.469429,53.1438429 Z M139.827805,46.2807 L137.469429,46.2807 L137.469429,49.0269857 L139.827805,49.0269857 C140.281436,49.0269857 140.638496,48.9022714 140.896444,48.6528429 C141.154391,48.4034143 141.282729,48.0627 141.282729,47.6268429 C141.282729,47.2269857 141.154391,46.9029857 140.896444,46.6548429 C140.638496,46.4054143 140.281436,46.2807 139.827805,46.2807 L139.827805,46.2807 Z M141.224278,49.4049857 C141.263669,49.4204143 141.313226,49.4422714 141.371677,49.4705571 C141.431398,49.4975571 141.541947,49.5734143 141.703323,49.6968429 C141.864699,49.8202714 142.007015,49.9565571 142.129,50.1044143 C142.250985,50.2522714 142.362805,50.4554143 142.463188,50.7164143 C142.563571,50.9774143 142.614398,51.2551286 142.614398,51.5457 C142.614398,52.2567 142.37297,52.8429857 141.892654,53.3058429 C141.412338,53.7674143 140.784624,54.0001286 140.012053,54.0001286 L136.558353,54.0001286 L136.558353,45.4179857 L139.827805,45.4179857 C140.51397,45.4179857 141.079421,45.6314143 141.522887,46.0557 C141.966353,46.4799857 142.188722,47.0045571 142.188722,47.6268429 C142.188722,47.8775571 142.156955,48.1102714 142.093421,48.3237 C142.029887,48.5371286 141.948564,48.7081286 141.850722,48.8354143 C141.75288,48.9627 141.655038,49.0719857 141.558466,49.1607 C141.461895,49.2519857 141.383113,49.3124143 141.318308,49.3445571 L141.224278,49.4049857 Z" id="Fill-13" fill="#FFFFFF" mask="url(#mask-4)"></path>
                            <path d="M51.3810827,8.10617143 L43.0035113,8.10617143 L43.0035113,20.5776 L51.3810827,20.5776 C53.0825188,20.5776 54.5349023,19.9810286 55.7382331,18.7878857 C56.9415639,17.5947429 57.5451353,16.1148857 57.5451353,14.3534571 C57.5451353,12.5920286 56.9415639,11.1108857 55.7382331,9.90874286 C54.5349023,8.70788571 53.0825188,8.10617143 51.3810827,8.10617143 L51.3810827,8.10617143 Z M37.5866165,3.11117143 L51.3810827,3.11117143 C54.6721353,3.11117143 57.4269624,4.20402857 59.6506466,6.38717143 C61.8730602,8.57288571 62.9849023,11.2278857 62.9849023,14.3534571 C62.9849023,17.4803143 61.8730602,20.1327429 59.6506466,22.3068857 C57.4269624,24.4836 54.6721353,25.5713143 51.3810827,25.5713143 L43.0035113,25.5713143 L43.0035113,38.0440286 L37.5866165,38.0440286 L37.5866165,3.11117143 Z" id="Fill-14" fill="#FFFFFF" mask="url(#mask-4)"></path>
                            <polygon id="Fill-15" fill="#FFFFFF" mask="url(#mask-4)" points="70.2595263 38.0442857 75.6764211 38.0442857 75.6764211 3.11271429 70.2595263 3.11271429"></polygon>
                            <polygon id="Fill-16" fill="#FFFFFF" mask="url(#mask-4)" points="121.724347 33.0508286 141.200008 33.0508286 141.200008 38.0445429 116.307452 38.0445429 116.307452 3.11168571 140.719692 3.11168571 140.719692 8.1054 121.724347 8.1054 121.724347 17.3381143 136.7717 17.3381143 136.7717 22.3318286 121.724347 22.3318286"></polygon>
                            <polygon id="Fill-17" fill="#FFFFFF" mask="url(#mask-4)" points="110.589153 3.11142857 104.027378 3.11914286 92.7666414 17.5937143 90.441303 17.5937143 90.441303 3.11142857 85.0244083 3.11142857 85.0244083 38.0442857 90.441303 38.0442857 90.441303 23.5632857 92.7615586 23.5632857 104.027378 38.043 110.58407 38.043 96.9967241 20.5804286"></polygon>
                        </g>
                    </g>
                </g>
            </g>
        </g>
    </g>
</svg>