<?xml version="1.0" encoding="UTF-8"?>
<svg width="13px" height="23px" viewBox="0 0 13 23" version="1.1" xmlns="http://www.w3.org/2000/svg" xmlns:xlink="http://www.w3.org/1999/xlink">
    <!-- Generator: sketchtool 55.2 (78181) - https://sketchapp.com -->
    <title>2C32E369-D469-4328-AD8A-1B7391E7E14A</title>
    <desc>Created with sketchtool.</desc>
    <defs>
        <polygon id="path-1" points="0 0.140923746 12.8507228 0.140923746 12.8507228 11.2499023 0 11.2499023"></polygon>
        <polygon id="path-3" points="0.127198005 0.126857143 11.947862 0.126857143 11.947862 11.9624688 0.127198005 11.9624688"></polygon>
    </defs>
    <g id="Symbols" stroke="none" stroke-width="1" fill="none" fill-rule="evenodd">
        <g id="Section/footer" transform="translate(-1106.000000, -74.000000)">
            <g id="Group" transform="translate(135.000000, 74.000000)">
                <g id="Stacked-Group-4" transform="translate(797.000000, 0.000000)">
                    <g id="ok" transform="translate(174.000000, 0.000000)">
                        <g id="Group-3" transform="translate(0.000000, 11.000000)">
                            <mask id="mask-2" fill="white">
                                <use xlink:href="#path-1"></use>
                            </mask>
                            <g id="Clip-2"></g>
                            <path d="M5.37191379,4.63403906 C3.71284483,4.45310156 2.21694828,4.02560156 0.936224138,2.97841406 C0.777310345,2.84810156 0.613241379,2.72247656 0.468224138,2.57692969 C-0.0923448276,2.01372656 -0.148827586,1.36896094 0.294741379,0.704507813 C0.674206897,0.136148437 1.3112069,-0.0159609375 1.97331034,0.310523438 C2.10151724,0.373570313 2.22367241,0.452789063 2.34067241,0.537398438 C4.72751724,2.25255469 8.00643103,2.29989844 10.4022414,0.614742188 C10.6396034,0.424429687 10.8933276,0.269273437 11.1873966,0.190054687 C11.7591724,0.0365390625 12.2923966,0.256148438 12.5992414,0.779273438 C12.9497931,1.37669531 12.9453103,1.95982031 12.5133966,2.42341406 C11.8508448,3.13474219 11.0540345,3.64919531 10.1686897,4.00825781 C9.33153448,4.34739844 8.41458621,4.51849219 7.50705172,4.63192969 C7.644,4.78755469 7.70855172,4.86419531 7.79417241,4.95442969 C9.02648276,6.24911719 10.2641724,7.53841406 11.4924483,8.83708594 C11.9109138,9.27935156 11.9983276,9.82825781 11.7679138,10.3427109 C11.5159828,10.9054453 10.9520517,11.2755234 10.3991034,11.2359141 C10.0487759,11.2106016 9.77532759,11.0280234 9.53281034,10.7723203 C8.60286207,9.79403906 7.65543103,8.83357031 6.74431034,7.83653906 C6.47915517,7.54661719 6.35162069,7.60146094 6.11762069,7.85294531 C5.18206897,8.86005469 4.23127586,9.85192969 3.27487931,10.8379453 C2.84543103,11.2804453 2.33439655,11.3601328 1.83636207,11.1074766 C1.30694828,10.8391172 0.970068966,10.2738047 0.996068966,9.70614844 C1.014,9.32200781 1.19465517,9.02857031 1.44681034,8.76536719 C2.66634483,7.49177344 3.88251724,6.21536719 5.09913793,4.93989844 C5.17960345,4.85482031 5.25468966,4.76505469 5.37191379,4.63403906" id="Fill-1" fill="#FFFFFF" mask="url(#mask-2)"></path>
                        </g>
                        <g id="Group-6" transform="translate(1.000000, 0.000000)">
                            <mask id="mask-4" fill="white">
                                <use xlink:href="#path-3"></use>
                            </mask>
                            <g id="Clip-5"></g>
                            <path d="M8.93311086,6.03933061 C8.92770612,4.43108571 7.6466449,3.15075918 6.04158367,3.14928811 C4.42305306,3.14757551 3.13072653,4.45116735 3.14321633,6.07410612 C3.15521633,7.67622857 4.44705306,8.94749388 6.05652245,8.94163662 C7.66133878,8.93598367 8.93848163,7.64733061 8.93311086,6.03933061 M5.99407347,11.9624688 C2.76019592,11.9514122 0.108440816,9.27051429 0.127198005,6.03149388 C0.145910204,2.75671837 2.79937959,0.117697959 6.06509388,0.126735919 C9.33742041,0.13557551 11.963951,2.8125551 11.947862,6.12137143 C11.9308898,9.35377959 9.26076735,11.973698 5.99407347,11.9624688" id="Fill-4" fill="#FFFFFF" mask="url(#mask-4)"></path>
                        </g>
                    </g>
                </g>
            </g>
        </g>
    </g>
</svg>