<?xml version="1.0" encoding="UTF-8"?>
<svg width="23px" height="20px" viewBox="0 0 23 20" version="1.1" xmlns="http://www.w3.org/2000/svg" xmlns:xlink="http://www.w3.org/1999/xlink">
    <!-- Generator: sketchtool 55.2 (78181) - https://sketchapp.com -->
    <title>E6EF255A-6E9F-400D-98E7-C69B996A7AF3</title>
    <desc>Created with sketchtool.</desc>
    <defs>
        <polygon id="path-1" points="0 0 23 0 23 20 0 20"></polygon>
    </defs>
    <g id="Symbols" stroke="none" stroke-width="1" fill="none" fill-rule="evenodd">
        <g id="Section/footer" transform="translate(-1157.000000, -76.000000)">
            <g id="Group" transform="translate(135.000000, 74.000000)">
                <g id="Stacked-Group-4" transform="translate(797.000000, 0.000000)">
                    <g id="twitter" transform="translate(225.000000, 2.000000)">
                        <mask id="mask-2" fill="white">
                            <use xlink:href="#path-1"></use>
                        </mask>
                        <g id="Clip-2"></g>
                        <path d="M23,2.36751664 C22.1536735,2.76906439 21.2443667,3.04049605 20.2898686,3.16253695 C21.2640425,2.53767214 22.0122597,1.54822274 22.3646262,0.369150905 C21.4527589,0.947823788 20.4430069,1.36797328 19.3681184,1.5943666 C18.507417,0.613088515 17.2810073,0 15.9237853,0 C13.3178275,0 11.2051109,2.26052056 11.2051109,5.04885962 C11.2051109,5.44459131 11.2468433,5.82994064 11.3272982,6.19952414 C7.40562616,5.98889663 3.92863491,3.97885073 1.60132695,0.924078925 C1.19514415,1.66978298 0.96240437,2.53709534 0.96240437,3.46242399 C0.96240437,5.2141604 1.79543399,6.75959528 3.06159949,7.66502439 C2.28809123,7.63878007 1.56049305,7.41166575 0.924355616,7.03347833 C0.923906399,7.05453147 0.923906399,7.07568074 0.923906399,7.09697421 C0.923906399,9.54327189 2.55047939,11.5838881 4.70906112,12.0478262 C4.3131654,12.1631378 3.8962463,12.2250955 3.46589557,12.2250955 C3.16182,12.2250955 2.86623464,12.1933236 2.57806137,12.1342979 C3.17857582,14.1401139 4.92118179,15.6000865 6.98605667,15.6407027 C5.37111842,16.9950251 3.33647591,17.8021101 1.12565015,17.8021101 C0.744758311,17.8021101 0.369167248,17.7782691 0,17.7314043 C2.0882342,19.1641231 4.56859069,20 7.23335111,20 C15.9127345,20 20.6590358,12.306376 20.6590358,5.63426182 C20.6590358,5.41536687 20.654364,5.19762551 20.6453347,4.98103776 C21.5673993,4.2692206 22.3674114,3.37998991 23,2.36751664" id="Fill-1" fill="#FFFFFF" mask="url(#mask-2)"></path>
                    </g>
                </g>
            </g>
        </g>
    </g>
</svg>