<?xml version="1.0" encoding="UTF-8"?>
<svg width="28px" height="16px" viewBox="0 0 28 16" version="1.1" xmlns="http://www.w3.org/2000/svg" xmlns:xlink="http://www.w3.org/1999/xlink">
    <!-- Generator: sketchtool 55.2 (78181) - https://sketchapp.com -->
    <title>3A623D7C-9655-4B20-982E-FF6A60D8E159</title>
    <desc>Created with sketchtool.</desc>
    <defs>
        <polygon id="path-1" points="0 0 28 0 28 16 0 16"></polygon>
    </defs>
    <g id="Symbols" stroke="none" stroke-width="1" fill="none" fill-rule="evenodd">
        <g id="Section/footer" transform="translate(-932.000000, -78.000000)">
            <g id="Group" transform="translate(135.000000, 74.000000)">
                <g id="Stacked-Group-4" transform="translate(797.000000, 0.000000)">
                    <g id="vk" transform="translate(0.000000, 4.000000)">
                        <mask id="mask-2" fill="white">
                            <use xlink:href="#path-1"></use>
                        </mask>
                        <g id="Clip-2"></g>
                        <path d="M27.8515029,14.4497664 C27.8175981,14.376533 27.7859911,14.3158803 27.7566308,14.2672455 C27.2708324,13.3909508 26.3424847,12.315361 24.9720983,11.0401693 L24.9431975,11.010968 L24.9286961,10.9966486 L24.9140415,10.9819201 L24.8993358,10.9819201 C24.2774077,10.3881774 23.8835709,9.98887135 23.7186426,9.78446224 C23.4168185,9.39512861 23.3492642,9.00098775 23.5141926,8.60163056 C23.6307148,8.29990082 24.0684133,7.66268855 24.8262669,6.68912433 C25.2249034,6.17316649 25.5406162,5.75964334 25.7737626,5.4480946 C27.4552662,3.20915772 28.1842701,1.77844739 27.9606211,1.15540106 L27.8737656,1.00980368 C27.8154024,0.92214864 27.6647713,0.841960129 27.4220763,0.768829025 C27.1788197,0.695851342 26.8678557,0.683782153 26.4887757,0.732416894 L22.2903014,0.761464774 C22.2222876,0.737326395 22.1251688,0.739576583 21.9986386,0.768829025 C21.8722105,0.798081466 21.8090476,0.812758828 21.8090476,0.812758828 L21.7359276,0.84932438 L21.6779729,0.893254183 C21.6293624,0.922302062 21.5759011,0.973391554 21.5175379,1.04642038 C21.45943,1.1191935 21.4109217,1.20459835 21.3720639,1.30191898 C20.9150131,2.47973888 20.39531,3.57481324 19.8120354,4.58709092 C19.4524098,5.1907038 19.1221445,5.71382133 18.8205247,6.15675035 C18.5193134,6.59952594 18.2666104,6.92575203 18.0626711,7.13486608 C17.8584254,7.34418469 17.6740937,7.51187482 17.5085015,7.63855017 C17.3432668,7.76527665 17.2170429,7.8188209 17.1296769,7.79923403 C17.0421576,7.77964717 16.9596423,7.76021373 16.8816205,7.74078029 C16.7456439,7.65312525 16.6362193,7.53391643 16.5538062,7.38305157 C16.4709845,7.2321867 16.4152255,7.04230153 16.3860694,6.81354949 C16.3570665,6.58464402 16.3399099,6.38775258 16.335008,6.22221035 C16.3304635,6.05687269 16.332557,5.82300658 16.3424119,5.52127685 C16.352522,5.2193937 16.3570665,5.01513801 16.3570665,4.90804953 C16.3570665,4.53809819 16.3642662,4.13659309 16.3786655,3.70343193 C16.3934222,3.27027077 16.4053195,2.92706599 16.4152255,2.6742267 C16.4251824,2.42113172 16.4297269,2.15335936 16.4297269,1.87106307 C16.4297269,1.58876678 16.4126213,1.36737899 16.3786655,1.20669512 C16.3452203,1.04621581 16.2937503,0.890441448 16.2260429,0.739423161 C16.1578759,0.588558296 16.0581019,0.471855373 15.9271804,0.389007548 C15.7959526,0.306262005 15.6329134,0.240597433 15.438829,0.19180927 C14.9236192,0.0750552062 14.2676842,0.0118965252 13.4705644,0.00207752384 C11.6629391,-0.0173559165 10.5014449,0.0995515691 9.98633731,0.352646559 C9.78224482,0.459581621 9.59755566,0.605690407 9.43242302,0.790512653 C9.25743554,1.00474076 9.23302818,1.12164825 9.35935413,1.14087712 C9.94257768,1.22837875 10.3554603,1.43769736 10.5984616,1.76862839 L10.686032,1.94398962 C10.7541479,2.07051154 10.8221617,2.29450751 10.8902266,2.61567068 C10.9581893,2.93683385 11.0020511,3.29210782 11.0213523,3.68128804 C11.0698607,4.3919894 11.0698607,5.00035837 11.0213523,5.50644606 C10.9726908,6.01273832 10.9267355,6.40687918 10.8828737,6.68917547 C10.839012,6.97147176 10.7734491,7.20022381 10.686032,7.37538047 C10.5984616,7.55058828 10.5402005,7.65767676 10.5109934,7.69654364 C10.4818373,7.73541053 10.4575321,7.75990689 10.4382309,7.76952133 C10.3119049,7.81800265 10.1805239,7.84270357 10.0445473,7.84270357 C9.90836652,7.84270357 9.74323389,7.77448197 9.54889412,7.63814104 C9.35460542,7.50180012 9.15296387,7.31452312 8.94396948,7.07600321 C8.73497508,6.83743216 8.49927556,6.50404638 8.2367688,6.07579472 C7.97446628,5.64754307 7.70230891,5.14140423 7.42044987,4.55737821 L7.18725236,4.13383149 C7.04147201,3.8613542 6.84233247,3.46460518 6.5896295,2.9439424 C6.33677334,2.42307506 6.11327751,1.91923755 5.9189888,1.43253215 C5.84132438,1.22812304 5.72464904,1.0725021 5.56916701,0.965413615 L5.49620024,0.921483812 C5.44769189,0.882616932 5.36982322,0.841346441 5.26300273,0.797365497 C5.15602906,0.753435694 5.04440879,0.721933065 4.92768238,0.702550765 L0.933198521,0.731598644 C0.525013526,0.731598644 0.248056381,0.824214329 0.102224964,1.00919 L0.0438617602,1.09669162 C0.0147056891,1.14542864 0,1.22326468 0,1.33040431 C0,1.43749279 0.0291560711,1.56892422 0.0875192747,1.72454516 C0.670640697,3.09715973 1.30477248,4.420935 1.98991462,5.69607553 C2.67505676,6.97121606 3.27043292,7.99837566 3.77568568,8.77658266 C4.28104056,9.55545449 4.79614817,10.2904988 5.32100851,10.9814087 C5.84586885,11.6725232 6.19329075,12.1154523 6.36327422,12.3100935 C6.53346194,12.5050416 6.66714074,12.6507413 6.76431062,12.748113 L7.1288381,13.0984775 C7.36208667,13.332139 7.70460668,13.6119806 8.15655131,13.9380021 C8.60859807,14.2642282 9.10905105,14.5853402 9.65816556,14.902003 C10.2073822,15.2180521 10.8463138,15.4760055 11.5753177,15.6755562 C12.3042194,15.8752604 13.0136668,15.9553466 13.7037619,15.9167355 L15.3803126,15.9167355 C15.7203306,15.8872785 15.9779355,15.7802411 16.1530251,15.5953677 L16.2110308,15.5222366 C16.2500418,15.4641409 16.2865507,15.3738777 16.3202512,15.2524187 C16.3543602,15.1307039 16.3713126,14.9967155 16.3713126,14.8509135 C16.3613557,14.4324298 16.3931669,14.0552676 16.4658784,13.7194782 C16.5384877,13.3837911 16.6213094,13.1306961 16.7139858,12.9602444 C16.8065091,12.7899461 16.9110319,12.6461897 17.0272987,12.5297425 C17.1438209,12.4129885 17.2268467,12.342261 17.2755593,12.3178669 C17.3239656,12.2934217 17.3626191,12.276801 17.3917751,12.2667774 C17.6250237,12.1889925 17.8995299,12.2643738 18.2157022,12.4933304 C18.5316192,12.7220824 18.8279286,13.0045322 19.10509,13.3402193 C19.3820982,13.6762132 19.7148655,14.0531708 20.1035961,14.4716546 C20.4925309,14.8902918 20.8326,15.2014826 21.1240586,15.4061985 L21.4155172,15.5814063 C21.6101633,15.6983138 21.8628663,15.8054023 22.1739325,15.9027229 C22.484437,16 22.7564922,16.0243354 22.9900982,15.9757006 L26.7220242,15.9173492 C27.0910962,15.9173492 27.3783167,15.856185 27.5821028,15.734726 C27.7862464,15.6130624 27.9075172,15.4790228 27.9466303,15.3331697 C27.9856412,15.1872655 27.9877347,15.0216721 27.9540342,14.8364919 C27.9194656,14.6518742 27.8854077,14.5227441 27.8515029,14.4497664" id="Fill-1" fill="#FFFFFF" mask="url(#mask-2)"></path>
                    </g>
                </g>
            </g>
        </g>
    </g>
</svg>