<?xml version="1.0" encoding="UTF-8"?>
<svg width="29px" height="20px" viewBox="0 0 29 20" version="1.1" xmlns="http://www.w3.org/2000/svg" xmlns:xlink="http://www.w3.org/1999/xlink">
    <!-- Generator: sketchtool 55.2 (78181) - https://sketchapp.com -->
    <title>D88C428E-BF50-4419-8AD5-2AD0BB0D2111</title>
    <desc>Created with sketchtool.</desc>
    <defs>
        <polygon id="path-1" points="0 0 29 0 29 20 0 20"></polygon>
    </defs>
    <g id="Symbols" stroke="none" stroke-width="1" fill="none" fill-rule="evenodd">
        <g id="Section/footer" transform="translate(-1276.000000, -76.000000)">
            <g id="Group" transform="translate(135.000000, 74.000000)">
                <g id="Stacked-Group-4" transform="translate(797.000000, 0.000000)">
                    <g id="youtube" transform="translate(344.000000, 2.000000)">
                        <mask id="mask-2" fill="white">
                            <use xlink:href="#path-1"></use>
                        </mask>
                        <g id="Clip-2"></g>
                        <path d="M18.6180935,10.6792503 L12.5338,13.7953036 C12.3977806,13.864975 12.2490387,13.8996273 12.1005774,13.8996273 C11.9323774,13.8996273 11.7644581,13.8552577 11.6158097,13.7670683 C11.3360065,13.6007737 11.1650935,13.3034785 11.1650935,12.9828984 L11.1650935,6.77068484 C11.1650935,6.45065477 11.3354452,6.15354293 11.6148742,5.9872483 C11.8943032,5.82095367 12.2417419,5.80958623 12.5316484,5.95717959 L18.6159419,9.0532482 C18.9254,9.21065056 19.1197935,9.52380516 19.1202618,9.8655617 C19.1206355,10.2075016 18.9271774,10.5210229 18.6180935,10.6792503 M27.8696548,1.71684994 C26.8227548,0.497508789 24.8901387,0 21.1990935,0 L7.80062581,0 C4.0250129,0 2.05965484,0.529594302 1.01677742,1.82777414 C0,3.09359344 0,4.95877012 0,7.54000376 L0,12.4600879 C0,17.4609359 1.2064,20 7.80062581,20 L21.1991871,20 C24.4000387,20 26.1737161,19.5610702 27.3210871,18.4848304 C28.4978323,17.3812721 29,15.5794414 29,12.4600879 L29,7.54000376 C29,4.81786888 28.9213258,2.94178313 27.8696548,1.71684994" id="Fill-1" fill="#FFFFFF" mask="url(#mask-2)"></path>
                    </g>
                </g>
            </g>
        </g>
    </g>
</svg>